<?xml version="1.0" encoding="utf-8"?>
<!-- Generator: Adobe Illustrator 18.1.1, SVG Export Plug-In . SVG Version: 6.00 Build 0)  -->
<svg version="1.1" id="Layer_1" xmlns="http://www.w3.org/2000/svg" xmlns:xlink="http://www.w3.org/1999/xlink" x="0px" y="0px"
	 viewBox="-0.8 66 259.8 106.3" enable-background="new -0.8 66 259.8 106.3" xml:space="preserve">
<g>
	<g>
		<path fill="#FFFFFF" d="M73.5,66h12.8v106.2H74.7L11.9,90.5v81.8H-0.8V66h10.9l63.4,82.5V66L73.5,66z"/>
		<path fill="#FFFFFF" d="M160.6,66h12.6v106.2h-13.5V89.6l-28.9,41h-2.5l-29.2-41V66.2l30.5,43.5L160.6,66z"/>
		<g>
			<path fill="#FFFFFF" d="M252.3,91.6c-4.4-8.4-10.3-14.7-17.8-19.1S216.9,66,204.2,66H186v13.5h16.7c6.5,0,11.1,0.3,14.1,0.8
				c2.9,0.6,6,1.7,9.2,3.4c3.2,1.7,6.1,3.9,8.7,6.6c6.9,7.3,10.3,16.5,10.3,27.9c0,11.6-3.3,21.2-10,28.8c-2.1,2.3-4.3,4.3-6.9,5.9
				c-2.5,1.6-5.6,2.9-9.3,3.9c-3.7,1.1-8.9,1.6-15.7,1.6H186v13.5h16.2c8.4,0,14-0.3,16.9-0.8c3-0.5,6.2-1.6,9.8-3.1
				c6.1-2.6,11.4-6.4,16-11.5c4.5-4.9,8-10.6,10.4-17.1s3.7-13.3,3.7-20.4C258.9,109.2,256.7,100,252.3,91.6z"/>
		</g>
	</g>
</g>
</svg>
