<?xml version="1.0" encoding="utf-8"?>
<!-- Generator: Adobe Illustrator 18.1.1, SVG Export Plug-In . SVG Version: 6.00 Build 0)  -->
<svg version="1.1" id="Layer_1" xmlns="http://www.w3.org/2000/svg" xmlns:xlink="http://www.w3.org/1999/xlink" x="0px" y="0px"
	 viewBox="0 58.4 260 143.3" enable-background="new 0 58.4 260 143.3" xml:space="preserve">
<g>
	<g>
		<path fill="#FFFFFF" d="M74.5,58.4h12.8v106.2H75.7L12.9,82.9v81.8H0.2V58.4h10.9l63.4,82.5V58.4L74.5,58.4z"/>
		<path fill="#FFFFFF" d="M161.6,58.4h12.6v106.2h-13.5V82l-28.9,41h-2.5l-29.2-41V58.6l30.5,43.5L161.6,58.4z"/>
		<g>
			<path fill="#FFFFFF" d="M253.3,84c-4.4-8.4-10.3-14.7-17.8-19.1s-17.6-6.5-30.3-6.5H187v13.5h16.7c6.5,0,11.1,0.3,14.1,0.8
				c2.9,0.6,6,1.7,9.2,3.4c3.2,1.7,6.1,3.9,8.7,6.6c6.9,7.3,10.3,16.5,10.3,27.9c0,11.6-3.3,21.2-10,28.8c-2.1,2.3-4.3,4.3-6.9,5.9
				c-2.5,1.6-5.6,2.9-9.3,3.9c-3.7,1.1-8.9,1.6-15.7,1.6H187v13.5h16.2c8.4,0,14-0.3,16.9-0.8c3-0.5,6.2-1.6,9.8-3.1
				c6.1-2.6,11.4-6.4,16-11.5c4.5-4.9,8-10.6,10.4-17.1s3.7-13.3,3.7-20.4C259.9,101.6,257.7,92.4,253.3,84z"/>
		</g>
	</g>
	<g>
		<path fill="#FFFFFF" d="M0,196.2v-18.7h0.4l13,14.3v-14.4h1.9v18.7h-0.4L2,182v14.2H0z"/>
		<path fill="#FFFFFF" d="M20.5,176.6c0.4,0,0.8,0.1,1.1,0.4c0.3,0.3,0.4,0.7,0.4,1.1c0,0.4-0.2,0.8-0.4,1.1
			c-0.3,0.3-0.6,0.4-1.1,0.4c-0.4,0-0.8-0.1-1.1-0.4c-0.3-0.3-0.4-0.7-0.4-1.1c0-0.4,0.2-0.8,0.4-1.1
			C19.7,176.8,20.1,176.6,20.5,176.6z M19.5,182.4h1.9v13.9h-1.9V182.4z"/>
		<path fill="#FFFFFF" d="M39.4,185.2l-1.5,0.9c-1.3-1.6-3-2.4-5.2-2.4c-1.7,0-3.2,0.5-4.4,1.6c-1.2,1.1-1.7,2.4-1.7,3.9
			c0,1,0.3,2,0.8,2.8c0.5,0.9,1.3,1.6,2.2,2.1c0.9,0.4,2,0.8,3.1,0.8c2.2,0,3.9-0.8,5.2-2.4l1.5,0.9c-0.7,1-1.6,1.7-2.8,2.3
			c-1.2,0.5-2.5,0.8-4,0.8c-2.3,0-4.2-0.7-5.7-2.1s-2.3-3.1-2.3-5c0-1.3,0.4-2.6,1.1-3.7c0.7-1.2,1.7-2,2.9-2.7c1.2-0.7,2.6-1,4.1-1
			c1,0,1.9,0.1,2.8,0.4c0.9,0.3,1.6,0.7,2.3,1.1C38.4,183.9,39,184.5,39.4,185.2z"/>
		<path fill="#FFFFFF" d="M49.8,182c2.2,0,4.1,0.8,5.6,2.3c1.3,1.4,2,3.1,2,5s-0.7,3.6-2.1,5c-1.4,1.5-3.2,2.2-5.4,2.2
			s-4.1-0.7-5.4-2.2c-1.4-1.5-2.1-3.1-2.1-5s0.7-3.6,2-5C45.7,182.8,47.6,182,49.8,182z M49.8,183.8c-1.6,0-2.9,0.5-4,1.6
			c-1.1,1.1-1.7,2.4-1.7,3.9c0,1,0.2,1.9,0.8,2.8c0.5,0.9,1.2,1.5,2,2c0.9,0.4,1.8,0.7,2.8,0.7s2-0.2,2.8-0.7c0.9-0.4,1.6-1.2,2-2
			c0.5-0.9,0.8-1.8,0.8-2.8c0-1.6-0.6-2.9-1.7-3.9C52.7,184.3,51.4,183.8,49.8,183.8z"/>
		<path fill="#FFFFFF" d="M60.5,177h1.9v19.2h-1.9V177z"/>
		<path fill="#FFFFFF" d="M78.4,191.6l1.6,0.8c-0.5,1-1.1,1.7-1.8,2.3c-0.7,0.6-1.5,1.1-2.3,1.3c-0.9,0.3-1.8,0.4-2.8,0.4
			c-2.4,0-4.2-0.8-5.6-2.2c-1.3-1.5-2-3.1-2-5c0-1.7,0.6-3.3,1.7-4.7c1.5-1.7,3.4-2.6,5.7-2.6c2.5,0,4.5,0.9,5.9,2.7
			c1.1,1.3,1.6,2.8,1.6,4.8h-13c0,1.6,0.6,2.9,1.6,3.9c1.1,1.1,2.3,1.6,3.8,1.6c0.8,0,1.5-0.1,2.2-0.4c0.7-0.2,1.3-0.6,1.8-1
			C77.3,193.2,78,192.5,78.4,191.6z M78.4,187.9c-0.2-0.9-0.7-1.7-1.1-2.3s-1.1-1.1-1.9-1.4c-0.8-0.4-1.6-0.5-2.5-0.5
			c-1.5,0-2.7,0.4-3.7,1.3c-0.8,0.7-1.3,1.6-1.7,2.8h10.9V187.9z"/>
		<path fill="#FFFFFF" d="M91,196.2l2.8-18.7h0.3l8,15.4l7.9-15.4h0.3l2.8,18.7h-1.9l-1.9-13.4l-6.9,13.4h-0.5l-7-13.4L93,196.2H91z
			"/>
		<path fill="#FFFFFF" d="M131.1,182.4v13.9h-1.9v-2.4c-0.8,0.9-1.7,1.6-2.6,2c-1,0.4-2,0.7-3.2,0.7c-2,0-3.8-0.7-5.3-2.2
			s-2.2-3.1-2.2-5.2c0-2,0.8-3.7,2.2-5.1s3.2-2.2,5.3-2.2c1.2,0,2.3,0.2,3.2,0.7s1.8,1.2,2.6,2.2v-2.6h1.9V182.4z M123.6,183.7
			c-1.1,0-2,0.2-2.9,0.8c-0.9,0.4-1.6,1.2-2.1,2c-0.5,0.9-0.8,1.8-0.8,2.8s0.3,1.9,0.8,2.8s1.2,1.6,2.1,2.1s1.9,0.8,2.8,0.8
			c1.1,0,2-0.2,2.9-0.8c0.9-0.4,1.6-1.2,2.1-2c0.5-0.8,0.8-1.8,0.8-2.8c0-1.6-0.6-3-1.7-4C126.6,184.2,125.2,183.7,123.6,183.7z"/>
		<path fill="#FFFFFF" d="M149.3,185.2l-1.5,0.9c-1.3-1.6-3-2.4-5.2-2.4c-1.7,0-3.2,0.5-4.4,1.6s-1.7,2.4-1.7,3.9c0,1,0.3,2,0.8,2.8
			c0.5,0.9,1.3,1.6,2.2,2.1c0.9,0.4,2,0.8,3.1,0.8c2.2,0,3.9-0.8,5.2-2.4l1.5,0.9c-0.7,1-1.6,1.7-2.8,2.3c-1.2,0.5-2.5,0.8-4,0.8
			c-2.3,0-4.2-0.7-5.7-2.1s-2.3-3.1-2.3-5c0-1.3,0.4-2.6,1.1-3.7c0.7-1.1,1.7-2,2.9-2.7c1.2-0.7,2.6-1,4.1-1c1,0,1.9,0.1,2.8,0.4
			c0.9,0.3,1.6,0.7,2.3,1.1C148.3,183.9,148.8,184.5,149.3,185.2z"/>
		<path fill="#FFFFFF" d="M153.2,196.2v-18.7h4.1c2.9,0,5,0.2,6.4,0.7c1.9,0.7,3.4,1.7,4.5,3.3s1.6,3.4,1.6,5.6
			c0,1.9-0.4,3.5-1.3,4.9c-0.9,1.5-2,2.5-3.3,3.1c-1.3,0.7-3.2,1.1-5.7,1.1H153.2L153.2,196.2z M155.1,194.5h2.3
			c2.7,0,4.6-0.2,5.6-0.4c1.5-0.4,2.6-1.3,3.5-2.5c0.9-1.2,1.3-2.7,1.3-4.3c0-1.8-0.4-3.4-1.4-4.6s-2.2-2.2-3.8-2.6
			c-1.2-0.4-3.2-0.5-6.1-0.5h-1.4L155.1,194.5L155.1,194.5z"/>
		<path fill="#FFFFFF" d="M180.1,182c2.2,0,4.1,0.8,5.6,2.3c1.3,1.4,2,3.1,2,5s-0.7,3.6-2.1,5c-1.4,1.5-3.2,2.2-5.4,2.2
			s-4.1-0.7-5.4-2.2c-1.4-1.5-2.1-3.1-2.1-5s0.7-3.6,2-5C175.9,182.8,177.8,182,180.1,182z M180,183.8c-1.6,0-2.9,0.5-4,1.6
			c-1.1,1.1-1.7,2.4-1.7,3.9c0,1,0.2,1.9,0.8,2.8c0.5,0.9,1.2,1.5,2,2c0.9,0.4,1.8,0.7,2.8,0.7s2-0.2,2.8-0.7c0.9-0.4,1.6-1.2,2-2
			c0.4-0.9,0.8-1.8,0.8-2.8c0-1.6-0.6-2.9-1.7-3.9C182.9,184.3,181.6,183.8,180,183.8z"/>
		<path fill="#FFFFFF" d="M190.8,182.4h1.9v6.5c0,1.6,0.1,2.7,0.3,3.2c0.3,0.9,0.8,1.5,1.5,2c0.8,0.4,1.6,0.8,2.7,0.8
			c1.1,0,1.9-0.2,2.7-0.7c0.7-0.4,1.2-1.1,1.5-1.9c0.2-0.5,0.3-1.7,0.3-3.4v-6.5h1.9v6.8c0,1.9-0.2,3.4-0.7,4.3
			c-0.4,1-1.2,1.7-2.1,2.3c-0.9,0.5-2.1,0.8-3.5,0.8s-2.6-0.3-3.5-0.8s-1.6-1.3-2.1-2.3c-0.4-1-0.7-2.4-0.7-4.4v-6.7H190.8
			L190.8,182.4z"/>
		<path fill="#FFFFFF" d="M220.1,182.4h1.9v11c0,1.9-0.2,3.4-0.5,4.2c-0.4,1.3-1.3,2.3-2.6,3c-1.2,0.7-2.7,1.1-4.3,1.1
			c-1.2,0-2.4-0.2-3.4-0.5c-1-0.4-1.8-0.8-2.4-1.3c-0.6-0.6-1.2-1.4-1.7-2.5h2c0.5,0.9,1.3,1.6,2.2,2s2,0.6,3.2,0.6s2.3-0.2,3.2-0.7
			c0.9-0.4,1.5-1.1,1.9-1.7c0.4-0.7,0.6-1.8,0.6-3.3v-0.7c-0.7,0.9-1.6,1.5-2.6,2c-1,0.4-2.1,0.7-3.2,0.7c-1.3,0-2.6-0.3-3.8-0.9
			c-1.2-0.7-2.1-1.5-2.7-2.6c-0.7-1.1-1-2.3-1-3.5c0-1.3,0.4-2.5,1-3.6s1.6-2,2.8-2.6c1.2-0.7,2.4-1,3.7-1c1.1,0,2.1,0.2,3,0.7
			c0.9,0.4,1.9,1.2,2.7,2.2v-2.4L220.1,182.4L220.1,182.4z M214.6,183.7c-1.1,0-2,0.2-3,0.8c-0.9,0.4-1.6,1.2-2.2,2
			c-0.5,0.9-0.8,1.8-0.8,2.8c0,1.5,0.5,2.8,1.6,3.8s2.4,1.5,4.1,1.5c1.7,0,3.1-0.4,4.1-1.5c1.1-1,1.6-2.3,1.6-3.9
			c0-1.1-0.2-2-0.7-2.8c-0.4-0.8-1.2-1.5-2-1.9C216.6,183.9,215.7,183.7,214.6,183.7z"/>
		<path fill="#FFFFFF" d="M240.5,182.4v13.9h-1.9v-2.4c-0.8,0.9-1.7,1.6-2.6,2c-1,0.4-2,0.7-3.2,0.7c-2,0-3.8-0.7-5.3-2.2
			c-1.5-1.4-2.2-3.1-2.2-5.2c0-2,0.8-3.7,2.2-5.1c1.5-1.4,3.2-2.2,5.3-2.2c1.2,0,2.3,0.2,3.2,0.7s1.8,1.2,2.6,2.2v-2.6h1.9V182.4
			L240.5,182.4z M232.9,183.7c-1.1,0-2,0.2-2.9,0.8c-0.9,0.4-1.6,1.2-2.1,2c-0.5,0.9-0.8,1.8-0.8,2.8s0.3,1.9,0.8,2.8
			s1.2,1.6,2.1,2.1s1.9,0.8,2.8,0.8c1.1,0,2-0.2,2.9-0.8c0.9-0.4,1.6-1.2,2.1-2c0.5-0.8,0.8-1.8,0.8-2.8c0-1.6-0.6-3-1.7-4
			C236,184.2,234.6,183.7,232.9,183.7z"/>
		<path fill="#FFFFFF" d="M244.3,177h1.9v19.2h-1.9V177z"/>
		<path fill="#FFFFFF" d="M249.8,177h1.9v19.2h-1.9V177z"/>
	</g>
</g>
</svg>
